<svg id="_1-Mail" data-name="1-Mail" xmlns="http://www.w3.org/2000/svg" viewBox="0 0 32 32"><title>1-Mail</title><path d="M28,28H4a4,4,0,0,1-4-4V8A4,4,0,0,1,4,4H28a4,4,0,0,1,4,4V24A4,4,0,0,1,28,28ZM4,6A2,2,0,0,0,2,8V24a2,2,0,0,0,2,2H28a2,2,0,0,0,2-2V8a2,2,0,0,0-2-2Z"/><path d="M16,18a1,1,0,0,1-.618-.214l-14-11A1,1,0,1,1,2.618,5.214L16,15.728,29.382,5.214a1,1,0,1,1,1.236,1.572l-14,11A1,1,0,0,1,16,18Z"/><path d="M2,27a1,1,0,0,1-.707-1.707l11-11a1,1,0,0,1,1.414,1.414l-11,11A1,1,0,0,1,2,27Z"/><path d="M30,27a1,1,0,0,1-.707-.293l-11-11a1,1,0,0,1,1.414-1.414l11,11A1,1,0,0,1,30,27Z"/></svg>