<!DOCTYPE svg PUBLIC "-//W3C//DTD SVG 1.1//EN" "http://www.w3.org/Graphics/SVG/1.1/DTD/svg11.dtd">
<!-- Uploaded to: SVG Repo, www.svgrepo.com, Transformed by: SVG Repo Mixer Tools -->
<svg fill="#000000" width="800px" height="800px" viewBox="0 0 24 24" id="add-contact-book" data-name="Flat Color" xmlns="http://www.w3.org/2000/svg" class="icon flat-color">
<g id="SVGRepo_bgCarrier" stroke-width="0"/>
<g id="SVGRepo_tracerCarrier" stroke-linecap="round" stroke-linejoin="round"/>
<g id="SVGRepo_iconCarrier">
<path id="secondary" d="M21,16H19a1,1,0,0,1-1-1V13a1,1,0,0,1,1-1h2a1,1,0,0,1,1,1v2A1,1,0,0,1,21,16Zm-1-2h0Zm1-4H19a1,1,0,0,1-1-1V7a1,1,0,0,1,1-1h2a1,1,0,0,1,1,1V9A1,1,0,0,1,21,10ZM20,8h0Z" style="fill: #2ca9bc;"/>
<rect id="primary" x="3" y="2" width="17" height="20" rx="2" style="fill: #c2c2c2;"/>
<path id="secondary-2" data-name="secondary" d="M5,17H3a1,1,0,0,1,0-2H5a1,1,0,0,1,0,2Zm7-2a1,1,0,0,1-1-1V13H10a1,1,0,0,1,0-2h1V10a1,1,0,0,1,2,0v1h1a1,1,0,0,1,0,2H13v1A1,1,0,0,1,12,15ZM5,13H3a1,1,0,0,1,0-2H5a1,1,0,0,1,0,2ZM5,9H3A1,1,0,0,1,3,7H5A1,1,0,0,1,5,9Z" style="fill: #2ca9bc;"/>
</g>
</svg>